# xmcd
#
# Track frame offsets:
#	150
#	19882
#	50437
#	71625
#	85096
#	100125
#	123217
#	134656
#	159688
#	178500
#	218758
#	227610
#	247860
#	280005
#
# Disc length: 3826 seconds
#
# Revision: 0
# Processed by: cddbd v1.5.1PL0 Copyright (c) Steve Scherf et al.
# Submitted via: dBpowerAMP V4.0
#
DISCID=ba0ef00e
DTITLE=Bluebyrds - Live
DYEAR=1900
DGENRE=
TTITLE0=R.I.P.
TTITLE1=T for Texas
TTITLE2=Ghost Blues
TTITLE3=Leaving Blues
TTITLE4=Southern Magic Train
TTITLE5=Don't Whish I Was Dead
TTITLE6=Song For Ana
TTITLE7=Hold On
TTITLE8=I Can't Let My Baby Go
TTITLE9=Have You Seen My Baby
TTITLE10=Tequila
TTITLE11=Mercury Blues
TTITLE12=I Was 19 Years Old
TTITLE13=Tristan's Song
EXTD=
EXTT0=
EXTT1=
EXTT2=
EXTT3=
EXTT4=
EXTT5=
EXTT6=
EXTT7=
EXTT8=
EXTT9=
EXTT10=
EXTT11=
EXTT12=
EXTT13=
PLAYORDER=
